<?xml version="1.0" encoding="utf-8"?>
<!-- Generator: Adobe Illustrator 25.2.1, SVG Export Plug-In . SVG Version: 6.00 Build 0)  -->
<svg version="1.1" id="Layer_1" xmlns="http://www.w3.org/2000/svg" xmlns:xlink="http://www.w3.org/1999/xlink" x="0px" y="0px"
	 viewBox="0 0 512 512" style="enable-background:new 0 0 512 512;" xml:space="preserve">
<style type="text/css">
	.st0{fill:#232323;}
	.st1{display:none;fill:#2E4356;}
	.st2{display:none;fill:#CCE134;}
	.st3{display:none;fill:#F4908C;}
	.st4{display:none;fill:#FBD502;}
	.st5{fill:#FFFFFF;}
	.st6{display:none;}
</style>
<g>
	<g>
		<g>
			<g>
				<g>
					<path class="st0" d="M244.7,461.3h-99V52h99V461.3z M158.5,448.3h73.4V65h-73.4V448.3z"/>
				</g>
				<rect id="XMLID_10_" x="169.7" y="87.6" class="st1" width="49.2" height="336.8"/>
				<g>
					<path class="st0" d="M116.5,461.3H22.8V256h93.7V461.3z M34.9,452.6h69.4V264.7H34.9V452.6z"/>
				</g>
				<rect id="XMLID_7_" x="46.4" y="183.1" class="st2" width="49.2" height="241.4"/>
				<g>
					<path class="st0" d="M366,461.3h-99V182h99V461.3z M279.8,445.3h73.4V198h-73.4V445.3z"/>
				</g>
				<rect id="XMLID_4_" x="293.1" y="256.9" class="st3" width="49.2" height="167.5"/>
				<g>
					<path class="st0" d="M486.4,461.3h-99V117h99V461.3z M400.1,448.3h73.4V130h-73.4V448.3z"/>
				</g>
				<rect id="XMLID_1_" x="416.4" y="147.3" class="st4" width="49.2" height="277.1"/>
			</g>
		</g>
	</g>
</g>
<path class="st5" d="M453,191.5c-0.6,0-0.6,1,0,1S453.6,191.5,453,191.5z"/>
<path class="st6" d="M232.4,280.5c0-0.4-0.1-0.7-0.1-1c0.7-46.4,0.6-92.8-0.5-139.3c-0.1-4.7-2.7-8.4-6.4-10.8
	c1.2-1.9,1.9-4.1,1.9-6.7c0-7.3,0-14.5,0-21.8c1.8-12,3.3-24,3.5-36c0.2-7.8-8.3-14.4-17.8-14.4c-5.5,0-10.4,2.1-13.6,5.3
	c-3.8-0.2-7.7-0.1-11.4,0.1c-12.1,0.5-24.2,2-36,4.5c-9.3,2-14.9,10.3-12.4,17.7c1.3,3.9,4.6,7,8.7,8.7c0,0.2,0,0.3,0,0.5v34.1
	c-3.1,15.4-2.8,31.2,0.9,46.8c-1.5,3.8-2.6,7.7-3.4,11.7c-3.7,19.7-2.3,39.9-2.4,59.8c-0.1,20.3-0.1,40.6-0.2,60.9
	c-0.1,40.6-0.3,81.1-0.4,121.7c0,10.5-2.5,23.2,9.4,30.2c10.4,6.1,26.6,3.9,38.8,3.9c13.1,0,29.5,1.7,37.7-8.7
	c6.6-8.4,5-20.8,5.5-30.4C236.7,371.7,236.1,326,232.4,280.5z"/>
<path class="st5" d="M453,230.5c-0.6,0-0.6,1,0,1S453.6,230.5,453,230.5z"/>
</svg>
